<svg width="16" height="16" viewBox="0 0 16 16" fill="none" xmlns="http://www.w3.org/2000/svg">
<path fill-rule="evenodd" clip-rule="evenodd" d="M6.4714 2.19526C6.73175 2.45561 6.73175 2.87772 6.4714 3.13807L3.60948 6L6.4714 8.86193C6.73175 9.12228 6.73175 9.54439 6.4714 9.80474C6.21106 10.0651 5.78894 10.0651 5.5286 9.80474L2.19526 6.4714C1.93491 6.21106 1.93491 5.78894 2.19526 5.5286L5.5286 2.19526C5.78894 1.93491 6.21106 1.93491 6.4714 2.19526Z" fill="#0671E0"/>
<path fill-rule="evenodd" clip-rule="evenodd" d="M2 6C2 5.63181 2.29848 5.33333 2.66667 5.33333H10.6667C11.5507 5.33333 12.3986 5.68452 13.0237 6.30964C13.6488 6.93477 14 7.78261 14 8.66667V13.3333C14 13.7015 13.7015 14 13.3333 14C12.9651 14 12.6667 13.7015 12.6667 13.3333V8.66667C12.6667 8.13623 12.456 7.62753 12.0809 7.25245C11.7058 6.87738 11.1971 6.66667 10.6667 6.66667H2.66667C2.29848 6.66667 2 6.36819 2 6Z" fill="#0671E0"/>
</svg>
