<?xml version="1.0" encoding="utf-8"?>
<!-- Generator: Adobe Illustrator 26.3.1, SVG Export Plug-In . SVG Version: 6.00 Build 0)  -->
<svg version="1.1" id="레이어_1" xmlns="http://www.w3.org/2000/svg" xmlns:xlink="http://www.w3.org/1999/xlink" x="0px"
	 y="0px" viewBox="0 0 12.57 14.61" style="enable-background:new 0 0 12.57 14.61;" xml:space="preserve">
<style type="text/css">
	.st0{fill:#5186FF;}
	.st1{fill:#FFFFFF;}
	.st2{fill:none;}
</style>
<g>
	<path class="st1" d="M1.26,12.71c0,1.05,0.85,1.91,1.89,1.91h6.28c1.04,0,1.89-0.85,1.89-1.91V3.18h1.26V1.91h-1.26H9.43V1.27
		C9.43,0.57,8.86,0,8.17,0H4.4C3.71,0,3.14,0.57,3.14,1.27v0.64H1.26H0v1.27h1.26V12.71z M4.4,1.27h3.77v0.64H4.4V1.27z M10.06,3.18
		v9.53c0,0.35-0.28,0.64-0.63,0.64H3.14c-0.35,0-0.63-0.29-0.63-0.64V3.18H10.06z"/>
	<rect x="5.66" y="4.45" class="st1" width="1.26" height="7.62"/>
	<rect x="3.77" y="4.45" class="st1" width="1.26" height="7.62"/>
	<rect x="7.54" y="4.45" class="st1" width="1.26" height="7.62"/>
</g>
</svg>
