<?xml version="1.0" encoding="utf-8"?>
<!-- Generator: Adobe Illustrator 26.3.1, SVG Export Plug-In . SVG Version: 6.00 Build 0)  -->
<svg version="1.1" id="레이어_1" xmlns="http://www.w3.org/2000/svg" xmlns:xlink="http://www.w3.org/1999/xlink" x="0px"
	 y="0px" viewBox="0 0 14.11 15.49" style="enable-background:new 0 0 14.11 15.49;" xml:space="preserve">
<style type="text/css">
	.st0{fill:#5186FF;}
	.st1{fill:#FFFFFF;}
	.st2{fill:none;}
</style>
<path class="st1" d="M7,2.36c1.31-1.31,3.44-1.31,4.75,0c1.31,1.31,1.31,3.44,0,4.75L8.7,10.16l0,0l-3.33,3.33c-0.8,0.8-2.2,0.8-3,0
	c-0.4-0.4-0.62-0.93-0.62-1.5c0-0.57,0.22-1.1,0.62-1.5l2-2l0,0l4.12-4.12c0.3-0.3,0.83-0.3,1.13,0c0.31,0.31,0.31,0.82,0,1.13
	l-5.47,5.47l0.97,0.97l5.47-5.47c0.85-0.85,0.85-2.23,0-3.08c-0.82-0.82-2.26-0.82-3.08,0L4.15,6.76l0,0L1.39,9.52
	c-0.66,0.66-1.03,1.54-1.03,2.47c0,0.93,0.36,1.81,1.03,2.47c0.66,0.66,1.54,1.02,2.47,1.02c0.93,0,1.81-0.36,2.47-1.02l2.97-2.97
	l0,0l3.41-3.41c1.84-1.85,1.84-4.85,0-6.7c-1.85-1.84-4.85-1.84-6.7,0L0,7.41l0.97,0.97L7,2.36z"/>
</svg>
