<?xml version="1.0" encoding="utf-8"?>
<!-- Generator: Adobe Illustrator 26.3.1, SVG Export Plug-In . SVG Version: 6.00 Build 0)  -->
<svg version="1.1" id="레이어_1" xmlns="http://www.w3.org/2000/svg" xmlns:xlink="http://www.w3.org/1999/xlink" x="0px"
	 y="0px" viewBox="0 0 18 18.25" style="enable-background:new 0 0 18 18.25;" xml:space="preserve">
<style type="text/css">
	.st0{fill:#5186FF;}
	.st1{fill:#FFFFFF;}
	.st2{fill:none;}
</style>
<g>
	<path class="st1" d="M5.79,1.3c2.48,0,4.5,2.05,4.5,4.56c0,2.52-2.02,4.56-4.5,4.56c-2.48,0-4.5-2.05-4.5-4.56
		C1.29,3.35,3.3,1.3,5.79,1.3 M5.79,0C2.59,0,0,2.63,0,5.87c0,3.24,2.59,5.87,5.79,5.87c3.2,0,5.79-2.63,5.79-5.87
		C11.57,2.63,8.98,0,5.79,0L5.79,0z"/>
	<path class="st1" d="M17.6,14.87c0.54,0.54,0.54,1.43,0,1.98l-0.98,0.99c-0.54,0.55-1.42,0.55-1.95,0l-4.19-4.25
		c-0.54-0.55-0.54-1.44,0-1.98l0.98-0.99c0.54-0.54,1.41-0.54,1.95,0L17.6,14.87z"/>
</g>
</svg>
