<?xml version="1.0" encoding="utf-8"?>
<!-- Generator: Adobe Illustrator 26.3.1, SVG Export Plug-In . SVG Version: 6.00 Build 0)  -->
<svg version="1.1" id="레이어_1" xmlns="http://www.w3.org/2000/svg" xmlns:xlink="http://www.w3.org/1999/xlink" x="0px"
	 y="0px" viewBox="0 0 17.35 17.78" style="enable-background:new 0 0 17.35 17.78;" xml:space="preserve">
<style type="text/css">
	.st0{fill:#5186FF;}
	.st1{fill:#FFFFFF;}
	.st2{fill:none;}
</style>
<g>
	<path class="st1" d="M17.35,5.19l-3.27-3.27l-9.63,9.63v3.27h3.27L17.35,5.19z M15.25,5.19l-7.1,7.1l-1.17-1.18l7.1-7.1L15.25,5.19
		z M5.93,13.34v-1.17l1.17,1.17H5.93z"/>
	<polygon class="st1" points="12.59,12.59 11.11,12.59 11.11,16.3 1.48,16.3 1.48,1.48 11.11,1.48 11.11,2.96 12.59,2.96 12.59,0 
		0,0 0,17.78 12.59,17.78 	"/>
	<rect x="2.96" y="2.96" class="st1" width="5.93" height="1.48"/>
	<rect x="2.96" y="5.93" class="st1" width="3.7" height="1.48"/>
	<rect x="2.96" y="8.89" class="st1" width="1.48" height="1.48"/>
</g>
</svg>
