<?xml version="1.0" encoding="utf-8"?>
<!-- Generator: Adobe Illustrator 26.3.1, SVG Export Plug-In . SVG Version: 6.00 Build 0)  -->
<svg version="1.1" id="레이어_1" xmlns="http://www.w3.org/2000/svg" xmlns:xlink="http://www.w3.org/1999/xlink" x="0px"
	 y="0px" viewBox="0 0 18 18.78" style="enable-background:new 0 0 18 18.78;" xml:space="preserve">
<style type="text/css">
	.st0{fill:#5186FF;}
	.st1{fill:#FFFFFF;}
	.st2{fill:none;}
</style>
<g>
	<path class="st1" d="M11.74,6.26c-3.45,0-6.26,2.81-6.26,6.26s2.81,6.26,6.26,6.26S18,15.97,18,12.52S15.19,6.26,11.74,6.26z
		 M11.74,17.22c-2.59,0-4.7-2.11-4.7-4.7c0-2.59,2.11-4.7,4.7-4.7s4.7,2.11,4.7,4.7C16.43,15.11,14.33,17.22,11.74,17.22z"/>
	<path class="st1" d="M12.52,4.7V0H3.59L0,3.59v13.63h4.69v-1.57H1.57V5.48h3.91V1.57h5.48V4.7H12.52z M1.89,3.91l2.02-2.02v2.02
		H1.89z"/>
	<polygon class="st1" points="14.51,10.13 11.15,13.49 10.14,12.48 9.03,13.59 11.15,15.7 15.62,11.24 	"/>
</g>
</svg>
