<?xml version="1.0" encoding="utf-8"?>
<!-- Generator: Adobe Illustrator 26.3.1, SVG Export Plug-In . SVG Version: 6.00 Build 0)  -->
<svg version="1.1" id="레이어_1" xmlns="http://www.w3.org/2000/svg" xmlns:xlink="http://www.w3.org/1999/xlink" x="0px"
	 y="0px" viewBox="0 0 18 18" style="enable-background:new 0 0 18 18;" xml:space="preserve">
<style type="text/css">
	.st0{fill:#5186FF;}
	.st1{fill:#FFFFFF;}
	.st2{fill:none;}
</style>
<g>
	<g>
		<path class="st1" d="M6.56,1.89c2.73-0.91,5.69-0.21,7.72,1.82c1.42,1.42,2.21,3.32,2.21,5.33v0c0,1.45-0.41,2.84-1.18,4.04
			l-1.81-1.81v4.5H18l-1.6-1.6c1.03-1.49,1.59-3.26,1.59-5.12v0c0-2.41-0.94-4.68-2.65-6.39C12.9,0.22,9.35-0.62,6.08,0.47
			L6.56,1.89z"/>
		<path class="st1" d="M3.74,14.29c-2.53-2.53-2.88-6.42-1.06-9.33L4.5,6.77v-4.5H0l1.6,1.6C0.56,5.4,0.03,7.18,0.03,8.95
			c0,2.32,0.88,4.63,2.64,6.39c2.44,2.44,5.99,3.27,9.26,2.18l-0.47-1.42C8.73,17.02,5.77,16.32,3.74,14.29z"/>
	</g>
	<polygon class="st1" points="6.93,10.84 5.21,9.12 4.15,10.18 6.93,12.96 14.21,5.68 13.15,4.62 	"/>
</g>
</svg>
