<?xml version="1.0" encoding="utf-8"?>
<!-- Generator: Adobe Illustrator 26.3.1, SVG Export Plug-In . SVG Version: 6.00 Build 0)  -->
<svg version="1.1" id="레이어_1" xmlns="http://www.w3.org/2000/svg" xmlns:xlink="http://www.w3.org/1999/xlink" x="0px"
	 y="0px" viewBox="0 0 20.48 22.48" style="enable-background:new 0 0 20.48 22.48;" xml:space="preserve">
<style type="text/css">
	.st0{fill:#5186FF;}
	.st1{fill:#FFFFFF;}
	.st2{fill:none;}
</style>
<path class="st1" d="M10.16,3.42c1.9-1.9,5-1.9,6.9,0c1.9,1.9,1.9,4.99,0,6.89l-4.43,4.43l0,0l-4.84,4.84
	c-1.16,1.16-3.19,1.16-4.35,0c-0.58-0.58-0.9-1.35-0.9-2.18c0-0.82,0.32-1.6,0.9-2.18l2.91-2.91l0,0l5.98-5.98
	c0.44-0.44,1.2-0.44,1.64,0c0.45,0.45,0.45,1.19,0,1.65l-7.94,7.94l1.41,1.41l7.94-7.94c1.23-1.23,1.23-3.24,0-4.47
	c-1.19-1.19-3.28-1.19-4.47,0L6.02,9.81l0,0l-4,4c-0.96,0.96-1.49,2.24-1.49,3.59c0,1.36,0.53,2.63,1.49,3.59
	c0.96,0.96,2.23,1.49,3.59,1.49c1.36,0,2.63-0.53,3.59-1.49l4.32-4.32l0,0l4.95-4.95c2.68-2.68,2.68-7.04,0-9.72
	c-2.68-2.68-7.04-2.68-9.72,0L0,10.76l1.41,1.41L10.16,3.42z"/>
</svg>
