<?xml version="1.0" encoding="utf-8"?>
<!-- Generator: Adobe Illustrator 26.3.1, SVG Export Plug-In . SVG Version: 6.00 Build 0)  -->
<svg version="1.1" id="레이어_1" xmlns="http://www.w3.org/2000/svg" xmlns:xlink="http://www.w3.org/1999/xlink" x="0px"
	 y="0px" viewBox="0 0 20.95 20.95" style="enable-background:new 0 0 20.95 20.95;" xml:space="preserve">
<style type="text/css">
	.st0{fill:#5186FF;}
	.st1{fill:#FFFFFF;}
	.st2{fill:none;}
</style>
<g>
	<g>
		<path class="st1" d="M18.09,0H2.86C1.28,0,0,1.28,0,2.86v4.76h1.9V2.86c0-0.52,0.43-0.95,0.95-0.95h15.24
			c0.53,0,0.95,0.43,0.95,0.95v15.24c0,0.53-0.43,0.95-0.95,0.95H2.86c-0.53,0-0.95-0.43-0.95-0.95v-4.68H0v4.68
			c0,1.58,1.28,2.86,2.86,2.86h15.24c1.58,0,2.86-1.28,2.86-2.86V2.86C20.95,1.28,19.67,0,18.09,0z"/>
		<polygon class="st1" points="0,11.43 9.19,11.43 6.95,13.67 8.29,15.02 12.81,10.5 8.29,5.98 6.95,7.32 9.15,9.52 0,9.52 		"/>
	</g>
</g>
</svg>
