<?xml version="1.0" encoding="utf-8"?>
<!-- Generator: Adobe Illustrator 26.3.1, SVG Export Plug-In . SVG Version: 6.00 Build 0)  -->
<svg version="1.1" id="레이어_1" xmlns="http://www.w3.org/2000/svg" xmlns:xlink="http://www.w3.org/1999/xlink" x="0px"
	 y="0px" viewBox="0 0 21 21" style="enable-background:new 0 0 21 21;" xml:space="preserve">
<style type="text/css">
	.st0{fill:#5186FF;}
	.st1{fill:#FFFFFF;}
	.st2{fill:none;}
</style>
<g>
	<g>
		<path class="st1" d="M10.5,7C8.57,7,7,8.57,7,10.5c0,1.93,1.57,3.5,3.5,3.5c1.93,0,3.5-1.57,3.5-3.5C14,8.57,12.43,7,10.5,7z
			 M10.5,12.25c-0.96,0-1.75-0.78-1.75-1.75c0-0.96,0.79-1.75,1.75-1.75c0.96,0,1.75,0.79,1.75,1.75
			C12.25,11.46,11.46,12.25,10.5,12.25z"/>
		<path class="st1" d="M18.43,6.81l1.21-2.02L16.2,1.35l-2.02,1.21c-0.22-0.1-0.45-0.2-0.68-0.28L12.93,0H8.07L7.5,2.28
			C7.26,2.37,7.04,2.46,6.81,2.56L4.8,1.35L1.36,4.8l1.21,2.02c-0.1,0.22-0.2,0.45-0.28,0.68L0,8.07v4.87l2.28,0.57
			c0.08,0.23,0.18,0.46,0.28,0.68L1.35,16.2l3.44,3.44l2.02-1.21c0.22,0.1,0.45,0.2,0.68,0.28L8.07,21h4.87l0.57-2.28
			c0.23-0.08,0.46-0.18,0.68-0.28l2.02,1.21l3.44-3.44l-1.21-2.02c0.1-0.22,0.2-0.45,0.28-0.68L21,12.93V8.07L18.72,7.5
			C18.63,7.26,18.54,7.04,18.43,6.81z M19.25,11.57l-1.91,0.48l-0.14,0.48c-0.13,0.45-0.31,0.88-0.53,1.29l-0.24,0.44l1.01,1.68
			l-1.51,1.51l-1.68-1.01l-0.44,0.24c-0.41,0.22-0.84,0.4-1.29,0.53l-0.48,0.14l-0.48,1.91H9.43l-0.48-1.91L8.48,17.2
			c-0.45-0.13-0.88-0.31-1.29-0.53l-0.44-0.24l-1.68,1.01l-1.51-1.51l1.01-1.68l-0.23-0.44c-0.22-0.41-0.4-0.84-0.53-1.29
			l-0.14-0.48l-1.91-0.48V9.43l1.91-0.48L3.8,8.48c0.14-0.45,0.32-0.89,0.53-1.29l0.24-0.44L3.56,5.07l1.51-1.51l1.68,1.01
			l0.44-0.23C7.6,4.11,8.03,3.93,8.48,3.8l0.48-0.14l0.48-1.91h2.13l0.48,1.91l0.48,0.14c0.45,0.13,0.88,0.31,1.29,0.53l0.44,0.23
			l1.68-1.01l1.51,1.51l-1.01,1.69l0.24,0.44c0.22,0.4,0.4,0.84,0.53,1.29l0.14,0.48l1.91,0.48V11.57z"/>
	</g>
</g>
</svg>
