<?xml version="1.0" encoding="utf-8"?>
<!-- Generator: Adobe Illustrator 26.3.1, SVG Export Plug-In . SVG Version: 6.00 Build 0)  -->
<svg version="1.1" id="레이어_1" xmlns="http://www.w3.org/2000/svg" xmlns:xlink="http://www.w3.org/1999/xlink" x="0px"
	 y="0px" viewBox="0 0 23.41 24" style="enable-background:new 0 0 23.41 24;" xml:space="preserve">
<style type="text/css">
	.st0{fill:#5186FF;}
	.st1{fill:#FFFFFF;}
	.st2{fill:none;}
</style>
<g>
	<path class="st1" d="M4,4.5C4,6.98,6.02,9,8.5,9C10.98,9,13,6.98,13,4.5C13,2.02,10.98,0,8.5,0C6.02,0,4,2.02,4,4.5z M11,4.5
		C11,5.88,9.88,7,8.5,7C7.12,7,6,5.88,6,4.5S7.12,2,8.5,2C9.88,2,11,3.12,11,4.5z"/>
	<path class="st1" d="M9,19.59V24h4.41l10-10L19,9.59L9,19.59z M11,22v-1.59L12.59,22H11z M14,20.59L12.41,19L19,12.41L20.59,14
		L14,20.59z"/>
	<path class="st1" d="M2,16v-1c0-1.65,1.35-3,3-3h7c0.62,0,1.19,0.19,1.66,0.51l1.42-1.41C14.23,10.42,13.17,10,12,10H5
		c-2.76,0-5,2.24-5,5v3h8.17l2-2H2z"/>
</g>
</svg>
