<?xml version="1.0" encoding="utf-8"?>
<!-- Generator: Adobe Illustrator 26.3.1, SVG Export Plug-In . SVG Version: 6.00 Build 0)  -->
<svg version="1.1" id="레이어_1" xmlns="http://www.w3.org/2000/svg" xmlns:xlink="http://www.w3.org/1999/xlink" x="0px"
	 y="0px" viewBox="0 0 19.99 19.99" style="enable-background:new 0 0 19.99 19.99;" xml:space="preserve">
<style type="text/css">
	.st0{fill:#5186FF;}
	.st1{fill:#FFFFFF;}
	.st2{fill:none;}
</style>
<g>
	<path class="st1" d="M0,12.49h19.99v-5H0V12.49z M1.67,9.16h16.66v1.67H1.67V9.16z"/>
	<path class="st1" d="M17.49,0H2.5C1.12,0,0,1.12,0,2.5v3.33h19.15h0.83V2.5C19.99,1.12,18.87,0,17.49,0z M18.32,4.16H1.67V2.5
		c0-0.46,0.37-0.83,0.83-0.83h14.99c0.46,0,0.83,0.37,0.83,0.83V4.16z"/>
	<path class="st1" d="M2.5,19.99h14.99c1.38,0,2.5-1.12,2.5-2.5v-3.33H0.83H0v3.33C0,18.87,1.12,19.99,2.5,19.99z M1.67,15.82h16.66
		v1.67c0,0.46-0.37,0.83-0.83,0.83H2.5c-0.46,0-0.83-0.37-0.83-0.83V15.82z"/>
</g>
</svg>
