<?xml version="1.0" encoding="utf-8"?>
<!-- Generator: Adobe Illustrator 26.3.1, SVG Export Plug-In . SVG Version: 6.00 Build 0)  -->
<svg version="1.1" id="레이어_1" xmlns="http://www.w3.org/2000/svg" xmlns:xlink="http://www.w3.org/1999/xlink" x="0px"
	 y="0px" viewBox="0 0 19.99 21.8" style="enable-background:new 0 0 19.99 21.8;" xml:space="preserve">
<style type="text/css">
	.st0{fill:#5186FF;}
	.st1{fill:#FFFFFF;}
	.st2{fill:none;}
</style>
<g>
	<path class="st1" d="M17.41,12.94l1.35-1.35l-1.28-1.28l-1.35,1.35c-0.48-0.32-1.01-0.55-1.59-0.66V9.08h-1.82v1.91
		c-0.58,0.12-1.12,0.35-1.59,0.66l-1.35-1.35l-1.28,1.28l1.35,1.35c-0.32,0.48-0.55,1.01-0.66,1.59H7.27v1.82h1.91
		c0.12,0.58,0.35,1.12,0.67,1.59L8.49,19.3l1.28,1.28l1.35-1.35c0.48,0.32,1.01,0.55,1.59,0.66v1.91h1.82V19.9
		c0.58-0.12,1.12-0.35,1.59-0.66l1.35,1.35l1.28-1.28l-1.35-1.35c0.32-0.48,0.55-1.01,0.67-1.59h1.91v-1.82h-1.91
		C17.96,13.96,17.73,13.42,17.41,12.94z M13.63,18.17c-1.5,0-2.73-1.22-2.73-2.73s1.22-2.73,2.73-2.73s2.73,1.22,2.73,2.73
		S15.13,18.17,13.63,18.17z"/>
	<path class="st1" d="M14.54,7.27V0H4.17L0,4.17v15.82h7.27v-1.82H1.82V6.36h4.54V1.82h6.36v5.45H14.54z M2.19,4.54l2.35-2.35v2.35
		H2.19z"/>
</g>
</svg>
