<?xml version="1.0" encoding="utf-8"?>
<!-- Generator: Adobe Illustrator 26.3.1, SVG Export Plug-In . SVG Version: 6.00 Build 0)  -->
<svg version="1.1" id="레이어_1" xmlns="http://www.w3.org/2000/svg" xmlns:xlink="http://www.w3.org/1999/xlink" x="0px"
	 y="0px" viewBox="0 0 21.54 17.95" style="enable-background:new 0 0 21.54 17.95;" xml:space="preserve">
<style type="text/css">
	.st0{fill:#5186FF;}
	.st1{fill:#FFFFFF;}
	.st2{fill:none;}
</style>
<g>
	<path class="st1" d="M0.9,12.57h1.8v-0.53l4.49-4.49l3.59,3.59l4.91-4.75v3.22h1.8V3.33h-6.28v1.8h3.22L10.77,8.6L7.18,5.01
		L2.69,9.5V1.8h16.16v10.77h1.8V1.8c0-0.99-0.81-1.8-1.8-1.8H2.69C1.7,0,0.9,0.81,0.9,1.8V12.57z"/>
	<path class="st1" d="M21.54,16.16v-2.69h-8.98v0.9H8.98v-0.9H0v2.69c0,0.99,0.81,1.8,1.8,1.8h17.95
		C20.74,17.95,21.54,17.15,21.54,16.16z M1.8,16.16v-0.9h6.28v0.9H1.8z M13.47,15.26h6.28v0.9h-6.28V15.26z"/>
</g>
</svg>
