<?xml version="1.0" encoding="utf-8"?>
<!-- Generator: Adobe Illustrator 26.3.1, SVG Export Plug-In . SVG Version: 6.00 Build 0)  -->
<svg version="1.1" id="Layer_1" xmlns="http://www.w3.org/2000/svg" xmlns:xlink="http://www.w3.org/1999/xlink" x="0px" y="0px"
	 viewBox="0 0 171.85 28.56" style="enable-background:new 0 0 171.85 28.56;" xml:space="preserve">
<style type="text/css">
	.st0{fill:#BCBCBC;}
	.st1{fill:#B50F0F;}
</style>
<g>
	<polygon class="st0" points="0,19.24 165.91,19.24 167.05,17.23 168.19,16.4 169.9,13.2 163.62,13.2 163.62,10.83 160.54,10.83 
		160.54,13.03 157.69,13.03 157.69,14.1 155.63,14.1 155.63,16.23 41.76,16.23 41.76,7.82 42.38,7.17 42.38,5.69 43.7,5.69 
		43.7,4.74 25.53,4.74 25.53,3.55 24.16,3.55 24.16,0 22.9,0 22.9,5.45 21.53,5.45 21.53,9.95 23.02,9.95 23.02,12.8 20.16,12.8 
		20.16,5.81 16.51,5.81 16.51,12.2 15.25,12.2 15.25,13.86 12.28,13.86 12.28,15.05 0,15.05 	"/>
	<path class="st1" d="M0,19.24h166.25l2.97,2.32l2.63,0.83v1.66l-2.17,0.59l-0.91,1.66l-2.51,2.25H5.71l0.23-1.9l2.17-1.42
		c0,0,0.91-1.07,0.34-1.66c-0.57-0.59-3.54-1.42-3.54-1.42l-1.03,1.66v4.74H1.03l-0.91-2.84l0.11-2.61h1.94l1.14-1.18l-0.34-0.59
		L0,19.24z"/>
</g>
</svg>
